<svg 
 xmlns="http://www.w3.org/2000/svg"
 xmlns:xlink="http://www.w3.org/1999/xlink"
 width="70px" height="70px">
<path fill-rule="evenodd"  fill="rgb(249, 249, 249)"
 d="M61.242,56.868 L61.242,69.989 L48.121,56.868 L26.253,56.868 C21.879,56.868 17.505,52.494 17.505,48.120 L17.505,45.557 L23.690,39.373 L43.747,39.373 C50.496,39.373 56.868,32.997 56.868,26.252 L56.868,21.879 L61.242,21.879 C65.615,21.879 69.989,26.252 69.989,30.626 L69.989,48.120 C69.989,52.494 65.615,56.868 61.242,56.868 ZM43.747,35.000 L21.879,35.000 L8.758,48.120 L8.758,35.000 C4.384,35.000 0.011,30.626 0.011,26.252 L0.011,8.758 C0.011,4.384 4.384,0.010 8.758,0.010 L43.747,0.010 C48.121,0.010 52.494,4.384 52.494,8.758 L52.494,26.252 C52.494,30.626 48.121,35.000 43.747,35.000 Z"/>
</svg>