<svg 
 xmlns="http://www.w3.org/2000/svg"
 xmlns:xlink="http://www.w3.org/1999/xlink"
 width="47px" height="69px">
<path fill-rule="evenodd"  fill="rgb(255, 255, 255)"
 d="M40.599,68.989 L6.401,68.989 C2.870,68.989 -0.011,66.088 -0.011,62.522 L-0.011,6.477 C-0.011,2.912 2.870,0.010 6.401,0.010 L40.599,0.010 C44.139,0.010 47.011,2.912 47.011,6.477 L47.011,62.522 C47.011,66.088 44.139,68.989 40.599,68.989 ZM42.736,6.477 C42.736,5.290 41.776,4.322 40.599,4.322 L6.401,4.322 C5.224,4.322 4.264,5.290 4.264,6.477 L4.264,62.522 C4.264,63.710 5.224,64.678 6.401,64.678 L40.599,64.678 C41.776,64.678 42.736,63.710 42.736,62.522 L42.736,6.477 ZM8.539,8.633 L38.461,8.633 L38.461,56.056 L8.539,56.056 L8.539,8.633 ZM23.500,58.211 C24.677,58.211 25.637,59.179 25.637,60.366 C25.637,61.554 24.677,62.522 23.500,62.522 C22.323,62.522 21.363,61.554 21.363,60.366 C21.363,59.179 22.323,58.211 23.500,58.211 Z"/>
</svg>