<svg 
 xmlns="http://www.w3.org/2000/svg"
 xmlns:xlink="http://www.w3.org/1999/xlink"
 width="90px" height="90px">
<path fill-rule="evenodd"  fill="rgb(255, 255, 255)"
 d="M45.000,0.014 C20.156,0.014 0.014,20.151 0.014,45.000 C0.014,56.521 4.380,66.993 11.502,74.955 C19.739,84.160 31.677,89.986 45.000,89.986 C58.487,89.986 70.557,84.020 78.805,74.618 C85.747,66.699 89.986,56.353 89.986,45.000 C89.986,20.151 69.843,0.014 45.000,0.014 ZM76.433,68.588 C73.528,66.205 67.828,64.423 62.133,62.045 C55.346,59.223 53.748,58.237 53.748,58.237 L53.682,51.727 C53.682,51.727 56.213,49.775 57.009,43.644 C58.597,44.110 60.266,41.277 60.359,39.788 C60.442,38.353 60.140,34.360 58.201,34.758 C58.591,31.757 58.877,29.058 58.739,27.630 C58.240,22.395 53.089,16.884 45.165,16.884 C37.262,16.884 32.100,22.395 31.595,27.630 C31.464,29.058 31.744,31.757 32.139,34.758 C30.195,34.360 29.893,38.353 29.986,39.788 C30.074,41.277 31.738,44.110 33.331,43.644 C34.116,49.775 36.658,51.727 36.658,51.727 L36.593,58.237 C36.593,58.237 34.989,59.223 28.212,62.045 C22.375,64.478 16.521,66.285 13.688,68.753 C8.658,62.144 5.637,53.929 5.637,45.000 C5.637,23.295 23.298,5.637 45.000,5.637 C66.702,5.637 84.363,23.295 84.363,45.000 C84.363,53.852 81.386,62.004 76.433,68.588 Z"/>
</svg>